<?xml version="1.0" encoding="utf-8"?>
<!-- Generator: Adobe Illustrator 16.0.0, SVG Export Plug-In . SVG Version: 6.00 Build 0)  -->
<!DOCTYPE svg PUBLIC "-//W3C//DTD SVG 1.1//EN" "http://www.w3.org/Graphics/SVG/1.1/DTD/svg11.dtd">
<svg version="1.1" xmlns="http://www.w3.org/2000/svg" xmlns:xlink="http://www.w3.org/1999/xlink" x="0px" y="0px"
	 width="305.568px" height="75.686px" viewBox="0 0 305.568 75.686" enable-background="new 0 0 305.568 75.686"
	 xml:space="preserve">
<g id="Layer_2_1_" display="none">
	<rect x="-29.716" y="-149.657" display="inline" fill="#00BA93" width="363" height="126"/>
</g>
<g id="Layer_1">
	<g id="Layer_2">
	</g>
	<g>
		<path fill="#AEB2B7" d="M56.208,50.721c0,2.855-2.322,5.18-5.176,5.18H19.968c-2.855,0-5.179-2.324-5.179-5.18V19.657
			c0-2.854,2.323-5.175,5.179-5.175H31.37c-0.158-2.283,0.161-4.557,1.027-6.84c0.069-0.188,0.151-0.371,0.229-0.556H19.968
			c-6.935,0-12.574,5.639-12.574,12.57v31.063c0,6.934,5.64,12.574,12.574,12.574h31.064c6.932,0,12.571-5.641,12.571-12.574V36.235
			c-2.265,1.051-4.734,2.023-7.396,2.918V50.721z"/>
		<path fill="#FF7C2E" d="M50.035,37.93c18.063-4.867,28.325-12.959,28.213-22.276c-0.512-4.083-4.308-8.458-9.6-8.458
			c-3.423,0-7.02,1.834-10.401,5.305l-1.676,1.72l-0.782-2.271C53.544,5.425,49.651,1.832,44.828,1.832
			c-4.148,0-8.211,2.878-9.658,6.843C31.807,17.542,38.637,26.803,50.035,37.93z"/>
		<g>
			<path fill="#FF7C2E" d="M215.811,38.942c2.715,0,5.115,1.014,7.121,3.004l0.086,0.088c0.174,0.186,0.438,0.467,0.795,0.84
				l0.217,0.225l3.854-1.43l-0.248-0.479c-0.521-1.002-1.086-1.812-1.68-2.406c-2.77-2.77-6.182-4.172-10.145-4.172
				c-3.932,0-7.336,1.404-10.119,4.176c-2.781,2.773-4.191,6.162-4.191,10.076c0,3.945,1.412,7.359,4.195,10.143
				c2.787,2.783,6.191,4.193,10.115,4.193c3.955,0,7.367-1.414,10.145-4.205c0.584-0.584,1.148-1.391,1.678-2.396l0.25-0.473
				l-3.875-1.504l-0.219,0.25c-0.383,0.434-0.703,0.779-0.957,1.035c-1.951,1.947-4.314,2.938-7.021,2.938
				c-2.697,0-5.047-0.982-6.982-2.916c-1.934-1.934-2.912-4.311-2.912-7.064c0-2.717,0.979-5.076,2.908-7.01
				C210.759,39.92,213.11,38.942,215.811,38.942z"/>
			<path fill="#FF7C2E" d="M239.921,35.323c-2.35,0-4.217,0.617-5.57,1.838V21.81h-4.283v40.71h4.283V42.828
				c0.229-0.475,0.607-0.967,1.127-1.473c1.252-1.221,2.705-1.812,4.443-1.812c1.715,0,3.164,0.602,4.436,1.838
				c1.26,1.23,1.875,2.676,1.875,4.418V62.52h4.281V46.006c-0.066-3.199-1.084-5.807-3.027-7.756
				C245.536,36.307,242.991,35.323,239.921,35.323z"/>
			<rect x="254.727" y="36.74" fill="#FF7C2E" width="4.256" height="25.779"/>
			<path fill="#FF7C2E" d="M256.868,28.349c-0.885,0-1.652,0.311-2.283,0.924c-0.631,0.616-0.949,1.356-0.949,2.198
				c0,0.911,0.32,1.687,0.953,2.306c0.627,0.615,1.395,0.927,2.279,0.927c0.863,0,1.621-0.312,2.252-0.931
				c0.635-0.621,0.957-1.396,0.957-2.302c0-0.842-0.322-1.581-0.953-2.195C258.495,28.661,257.737,28.349,256.868,28.349z"/>
			<rect x="263.266" y="21.81" fill="#FF7C2E" width="4.281" height="40.71"/>
			<path fill="#FF7C2E" d="M298.175,48.707v-0.477c0-3.771-1.254-6.951-3.727-9.447c-2.771-2.77-6.188-4.172-10.146-4.172
				c-3.93,0-7.334,1.404-10.115,4.176c-2.783,2.771-4.197,6.172-4.197,10.105c0,3.924,1.414,7.326,4.199,10.113
				c2.783,2.783,6.186,4.193,10.113,4.193c3.963,0,7.436-1.525,10.285-4.504c0.846-0.721,1.469-1.562,1.855-2.5l0.189-0.457
				l-3.875-1.414l-0.215,0.248c-0.463,0.537-0.873,0.986-1.221,1.334c-1.949,1.947-4.312,2.938-7.02,2.938
				c-2.719,0-5.076-0.977-7.01-2.902c-1.932-1.926-2.912-4.299-2.912-7.049c0-0.068,0-0.131,0-0.186H298.175z M284.302,38.942
				c2.713,0,5.074,0.984,7.021,2.932c0.871,0.869,1.545,1.734,2.012,2.58h-18.174c0.404-0.787,0.896-1.605,1.473-2.436
				C279.005,39.975,281.585,38.942,284.302,38.942z"/>
		</g>
		<g>
			<path fill="#319DD4" d="M89.453,38.508c-2.586-2.309-5.688-3.477-9.229-3.477c-3.808,0-7.108,1.363-9.811,4.053
				c-2.7,2.693-4.069,5.99-4.069,9.801c0,3.809,1.37,7.107,4.072,9.811c2.704,2.701,6.005,4.07,9.808,4.07
				c3.548,0,6.647-1.176,9.229-3.5v2.846h4.364V22.728h-4.364V38.508z M80.223,58.33c-2.578,0-4.815-0.926-6.649-2.752
				c-1.834-1.828-2.763-4.082-2.763-6.693c0-2.586,0.928-4.83,2.76-6.668c1.859-1.867,4.036-2.775,6.652-2.775
				c2.577,0,4.82,0.936,6.663,2.779c1.362,1.363,2.227,2.943,2.566,4.701v3.92c-0.34,1.758-1.203,3.34-2.566,4.699
				C85.01,57.418,82.831,58.33,80.223,58.33z"/>
			<path fill="#319DD4" d="M119.47,38.51c-2.589-2.309-5.69-3.479-9.234-3.479c-3.808,0-7.108,1.363-9.812,4.053
				c-2.699,2.693-4.067,5.99-4.067,9.801c0,3.809,1.369,7.107,4.071,9.811c2.705,2.701,6.005,4.07,9.808,4.07
				c3.554,0,6.654-1.178,9.234-3.504v2.85h4.359V37.084h-4.359V38.51z M110.236,58.33c-2.574,0-4.812-0.926-6.649-2.752
				c-1.834-1.83-2.763-4.082-2.763-6.693c0-2.582,0.928-4.826,2.76-6.668c1.835-1.842,4.072-2.775,6.652-2.775
				c2.61,0,4.79,0.91,6.663,2.779c1.366,1.367,2.23,2.947,2.571,4.701v3.918c-0.346,1.762-1.209,3.342-2.571,4.701
				C115.023,57.418,112.844,58.33,110.236,58.33z"/>
			<polygon fill="#319DD4" points="134.253,27.381 129.919,27.381 129.919,37.084 125.265,37.084 125.265,41.391 129.919,41.391 
				129.919,62.112 134.253,62.112 134.253,41.391 138.907,41.391 138.907,37.084 134.253,37.084 			"/>
			<path fill="#319DD4" d="M158.682,35.715c-2.258,0-4.1,0.627-5.497,1.869v-0.5h-4.361v25.027h4.361V43.489
				c0.261-0.555,0.706-1.146,1.317-1.758c1.188-1.15,2.555-1.707,4.18-1.707c1.633,0,3.008,0.566,4.201,1.73
				c1.191,1.156,1.768,2.516,1.768,4.162v16.195h4.336V46.244c-0.043-3.195-1.025-5.777-2.922-7.672
				C164.175,36.676,161.688,35.715,158.682,35.715z"/>
			<rect x="140.98" y="36.854" fill="#319DD4" width="4.364" height="25.258"/>
			<path fill="#319DD4" d="M143.181,27.531c-0.892,0-1.665,0.312-2.303,0.933c-0.633,0.623-0.954,1.37-0.954,2.22
				c0,0.919,0.324,1.701,0.963,2.321c0.634,0.62,1.405,0.935,2.294,0.935c0.874,0,1.639-0.316,2.268-0.938
				c0.641-0.627,0.967-1.406,0.967-2.317c0-0.847-0.325-1.593-0.965-2.219C144.814,27.845,144.051,27.531,143.181,27.531z"/>
			<path fill="#319DD4" d="M195.059,37.155v1.643c-2.707-2.49-5.975-3.75-9.729-3.75c-3.932,0-7.334,1.402-10.115,4.166
				c-2.785,2.762-4.195,6.154-4.195,10.088c0,3.926,1.412,7.328,4.197,10.113c2.783,2.785,6.186,4.199,10.113,4.199
				c3.6,0,6.75-1.172,9.381-3.492c-0.5,2.359-1.6,5.119-2.914,6.436c-1.951,1.949-4.305,2.938-6.994,2.938
				c-2.713,0-5.025-0.945-6.887-2.822c-0.328-0.305-0.688-0.682-1.102-1.152l-0.221-0.248l-3.863,1.502l0.246,0.471
				c0.527,1.012,1.09,1.816,1.668,2.396c2.795,2.795,6.215,4.213,10.158,4.213c3.939,0,7.344-1.418,10.115-4.213
				c2.902-2.883,4.422-8.754,4.422-13.064V37.155H195.059z M185.331,39.356c2.715,0,5.33,1.033,7.771,3.074
				c0.904,1.305,1.553,2.893,1.932,4.723v4.332c-0.402,1.846-1.305,3.48-2.684,4.859c-1.977,1.975-4.273,2.934-7.02,2.934
				c-2.717,0-5.074-0.979-7.01-2.912c-1.932-1.934-2.912-4.309-2.912-7.064c0-2.723,0.979-5.086,2.91-7.023
				C180.247,40.338,182.606,39.356,185.331,39.356z"/>
		</g>
	</g>
</g>
</svg>
