<?xml version="1.0" encoding="utf-8"?>
<!-- Generator: Adobe Illustrator 16.0.0, SVG Export Plug-In . SVG Version: 6.00 Build 0)  -->
<!DOCTYPE svg PUBLIC "-//W3C//DTD SVG 1.1//EN" "http://www.w3.org/Graphics/SVG/1.1/DTD/svg11.dtd">
<svg version="1.1" xmlns="http://www.w3.org/2000/svg" xmlns:xlink="http://www.w3.org/1999/xlink" x="0px" y="0px"
	 width="305.568px" height="75.686px" viewBox="0 0 305.568 75.686" enable-background="new 0 0 305.568 75.686"
	 xml:space="preserve">
<g id="Layer_2">
</g>
<g id="Layer_1">
	<g>
		<path fill="#FFFFFF" d="M57.04,50.609c0,2.831-2.303,5.134-5.132,5.134H21.111c-2.83,0-5.134-2.303-5.134-5.134V19.812
			c0-2.829,2.304-5.13,5.134-5.13h11.305c-0.157-2.265,0.16-4.518,1.02-6.78c0.067-0.188,0.148-0.368,0.227-0.552h-12.55
			c-6.874,0-12.465,5.591-12.465,12.462v30.797c0,6.874,5.591,12.466,12.465,12.466h30.797c6.872,0,12.464-5.592,12.464-12.466
			V36.248c-2.246,1.041-4.693,2.007-7.332,2.893L57.04,50.609L57.04,50.609z"/>
		<path fill="#FFFFFF" d="M50.92,37.929c17.907-4.826,28.081-12.85,27.971-22.086c-0.508-4.047-4.271-8.386-9.518-8.386
			c-3.395,0-6.96,1.819-10.312,5.26l-1.662,1.705l-0.774-2.251C54.397,5.703,50.539,2.142,45.758,2.142
			c-4.111,0-8.14,2.854-9.575,6.782C32.849,17.716,39.62,26.897,50.92,37.929z"/>
		<g>
			<path fill="#FFFFFF" d="M215.27,38.931c2.69,0,5.069,1.006,7.06,2.978l0.084,0.089c0.173,0.185,0.435,0.461,0.789,0.832
				l0.214,0.225l3.82-1.419l-0.246-0.474c-0.516-0.994-1.076-1.797-1.666-2.386c-2.744-2.745-6.127-4.137-10.055-4.137
				c-3.899,0-7.273,1.393-10.033,4.14c-2.757,2.75-4.155,6.11-4.155,9.989c0,3.913,1.399,7.296,4.159,10.055
				c2.763,2.76,6.138,4.159,10.029,4.159c3.92,0,7.304-1.403,10.055-4.17c0.58-0.579,1.14-1.378,1.665-2.376l0.247-0.47
				l-3.841-1.488l-0.218,0.246c-0.38,0.43-0.696,0.772-0.949,1.024c-1.935,1.934-4.275,2.913-6.959,2.913
				c-2.677,0-5.005-0.973-6.923-2.891c-1.916-1.917-2.889-4.272-2.889-7.004c0-2.693,0.972-5.031,2.884-6.949
				C210.26,39.901,212.59,38.931,215.27,38.931z"/>
			<path fill="#FFFFFF" d="M239.172,35.343c-2.33,0-4.182,0.612-5.523,1.824V21.946h-4.245v40.36h4.245V42.784
				c0.227-0.469,0.603-0.959,1.117-1.458c1.241-1.211,2.684-1.799,4.406-1.799c1.698,0,3.137,0.597,4.396,1.823
				c1.25,1.22,1.857,2.651,1.857,4.379v16.577h4.245v-16.37c-0.064-3.171-1.073-5.757-3.002-7.688
				C244.737,36.32,242.215,35.343,239.172,35.343z"/>
			<path fill="#FFFFFF" d="M255.973,28.429c-0.878,0-1.641,0.308-2.266,0.915c-0.625,0.611-0.94,1.346-0.94,2.181
				c0,0.902,0.316,1.672,0.944,2.287c0.622,0.608,1.385,0.919,2.262,0.919c0.854,0,1.604-0.312,2.23-0.923
				c0.63-0.616,0.948-1.386,0.948-2.283c0-0.834-0.318-1.566-0.945-2.176C257.585,28.738,256.833,28.429,255.973,28.429z"/>
			<rect x="253.85" y="36.75" fill="#FFFFFF" width="4.22" height="25.558"/>
			<rect x="262.314" y="21.946" fill="#FFFFFF" width="4.245" height="40.36"/>
			<path fill="#FFFFFF" d="M296.922,48.612V48.14c0-3.739-1.241-6.891-3.693-9.365c-2.748-2.745-6.133-4.137-10.06-4.137
				c-3.896,0-7.27,1.393-10.027,4.14c-2.761,2.749-4.159,6.119-4.159,10.018c0,3.893,1.399,7.266,4.162,10.026
				c2.759,2.76,6.132,4.159,10.024,4.159c3.931,0,7.371-1.515,10.197-4.467c0.837-0.715,1.456-1.549,1.84-2.479l0.188-0.454
				l-3.843-1.4l-0.213,0.245c-0.46,0.533-0.865,0.979-1.21,1.321c-1.935,1.934-4.275,2.913-6.96,2.913
				c-2.693,0-5.033-0.968-6.949-2.877c-1.915-1.909-2.887-4.261-2.887-6.989c0-0.065,0-0.128,0-0.184L296.922,48.612L296.922,48.612
				z M283.169,38.931c2.689,0,5.03,0.979,6.961,2.907c0.864,0.861,1.532,1.72,1.994,2.558h-18.018c0.4-0.781,0.891-1.59,1.46-2.415
				C277.918,39.956,280.476,38.931,283.169,38.931z"/>
		</g>
		<g>
			<path fill="#FFFFFF" d="M89.999,38.501c-2.563-2.287-5.639-3.445-9.149-3.445c-3.775,0-7.049,1.353-9.728,4.019
				c-2.677,2.67-4.034,5.939-4.034,9.717c0,3.774,1.358,7.047,4.038,9.728c2.682,2.677,5.952,4.032,9.724,4.032
				c3.517,0,6.591-1.163,9.149-3.47v2.821h4.326V22.856h-4.326V38.501z M80.849,58.153c-2.557,0-4.774-0.918-6.594-2.729
				c-1.816-1.812-2.737-4.045-2.737-6.635c0-2.563,0.92-4.788,2.735-6.611c1.844-1.852,4.001-2.75,6.596-2.75
				c2.556,0,4.776,0.928,6.605,2.755c1.352,1.351,2.206,2.918,2.544,4.659v3.887c-0.338,1.744-1.191,3.312-2.544,4.659
				C85.594,57.249,83.434,58.153,80.849,58.153z"/>
			<path fill="#FFFFFF" d="M119.757,38.504c-2.564-2.289-5.641-3.448-9.153-3.448c-3.775,0-7.048,1.353-9.728,4.019
				c-2.676,2.67-4.034,5.939-4.034,9.717c0,3.774,1.359,7.047,4.038,9.728c2.682,2.677,5.952,4.032,9.724,4.032
				c3.522,0,6.598-1.166,9.153-3.472v2.823h4.322V37.089h-4.322V38.504z M110.603,58.153c-2.553,0-4.771-0.918-6.594-2.729
				c-1.815-1.814-2.737-4.047-2.737-6.636c0-2.561,0.921-4.785,2.735-6.611c1.818-1.824,4.037-2.75,6.596-2.75
				c2.588,0,4.748,0.9,6.605,2.755c1.354,1.354,2.211,2.922,2.548,4.659v3.887c-0.341,1.746-1.197,3.312-2.549,4.659
				C115.349,57.249,113.188,58.153,110.603,58.153z"/>
			<polygon fill="#FFFFFF" points="134.412,27.471 130.115,27.471 130.115,37.089 125.502,37.089 125.502,41.359 130.115,41.359 
				130.115,61.901 134.412,61.901 134.412,41.359 139.026,41.359 139.026,37.089 134.412,37.089 			"/>
			<path fill="#FFFFFF" d="M158.632,35.733c-2.236,0-4.063,0.621-5.449,1.853v-0.497h-4.323v24.812h4.323V43.44
				c0.26-0.551,0.699-1.14,1.306-1.744c1.179-1.139,2.534-1.692,4.145-1.692c1.619,0,2.983,0.562,4.166,1.719
				c1.18,1.145,1.752,2.493,1.752,4.122v16.058h4.298V46.173c-0.042-3.168-1.017-5.729-2.896-7.606
				C164.076,36.686,161.613,35.733,158.632,35.733z"/>
			<rect x="141.083" y="36.86" fill="#FFFFFF" width="4.326" height="25.041"/>
			<path fill="#FFFFFF" d="M143.265,27.618c-0.885,0-1.651,0.312-2.283,0.925c-0.628,0.618-0.945,1.358-0.945,2.2
				c0,0.912,0.321,1.688,0.954,2.302c0.629,0.614,1.394,0.928,2.274,0.928c0.865,0,1.623-0.314,2.248-0.932
				c0.636-0.622,0.958-1.395,0.958-2.298c0-0.839-0.322-1.579-0.957-2.2C144.882,27.93,144.125,27.618,143.265,27.618z"/>
			<path fill="#FFFFFF" d="M194.695,37.159v1.63c-2.684-2.469-5.924-3.72-9.646-3.72c-3.896,0-7.271,1.391-10.026,4.132
				c-2.762,2.736-4.16,6.102-4.16,10.001c0,3.891,1.4,7.264,4.162,10.025c2.759,2.763,6.132,4.163,10.024,4.163
				c3.568,0,6.69-1.162,9.302-3.46c-0.496,2.337-1.587,5.072-2.892,6.379c-1.934,1.932-4.267,2.91-6.934,2.91
				c-2.689,0-4.982-0.938-6.827-2.797c-0.325-0.303-0.682-0.676-1.092-1.142l-0.218-0.247l-3.832,1.489l0.243,0.467
				c0.523,1.002,1.081,1.801,1.655,2.375c2.771,2.771,6.159,4.177,10.069,4.177c3.906,0,7.281-1.406,10.028-4.176
				c2.878-2.858,4.385-8.68,4.385-12.953V37.159H194.695z M185.051,39.341c2.692,0,5.283,1.025,7.705,3.05
				c0.896,1.294,1.539,2.868,1.913,4.683v4.295c-0.396,1.83-1.291,3.449-2.659,4.816c-1.959,1.958-4.234,2.909-6.959,2.909
				c-2.692,0-5.03-0.972-6.947-2.888s-2.89-4.272-2.89-7.004c0-2.7,0.973-5.043,2.887-6.964
				C180.012,40.315,182.35,39.341,185.051,39.341z"/>
		</g>
	</g>
</g>
</svg>
