
<svg version="1.1" xmlns="http://www.w3.org/2000/svg"   viewBox="-18 -22 240 240" preserveAspectRatio="xMinYMin">
<g >
	<g class="membership">
		<path class="svg-mem-text-border" d="M81.25,164.983l-0.614-0.218l-1.191,3.366l0.547,0.194c0.649,0.229,1.177,0.254,1.581,0.074
			c0.403-0.181,0.705-0.551,0.903-1.11c0.192-0.545,0.184-1.013-0.025-1.405C82.239,165.492,81.839,165.192,81.25,164.983z"/>
		<path class="svg-mem-text-border" d="M91.347,167.77l-0.652-0.105l-0.621,3.848l0.58,0.093c1.732,0.28,2.706-0.241,2.92-1.565
			C93.775,168.799,93.032,168.042,91.347,167.77z"/>
		<path class="svg-mem-text-border" d="M77.246,50.679c0.765-0.344,1.259-0.744,1.482-1.205c0.231-0.494,0.234-0.989,0.011-1.487
			c-0.216-0.483-0.58-0.809-1.091-0.975c-0.498-0.166-1.201-0.044-2.111,0.363l-0.855,0.384l1.52,3.389L77.246,50.679z"/>
		<path class="svg-mem-text-border" d="M159.794,72.697c1.091-0.646,1.188-1.724,0.295-3.233l-0.312-0.527l-3.325,1.969l0.352,0.596
			C157.671,72.966,158.667,73.364,159.794,72.697z"/>
		<path class="svg-mem-text-border" d="M79.811,169.907l-0.885-0.313l-1.239,3.501l1.079,0.383c0.79,0.279,1.424,0.33,1.904,0.15
			c0.508-0.197,0.854-0.553,1.036-1.067c0.177-0.5,0.138-0.986-0.117-1.458C81.343,170.638,80.75,170.239,79.811,169.907z"/>
		<path class="svg-mem-text-border" d="M85.686,42.493c1.705-0.416,2.398-1.275,2.08-2.578c-0.298-1.221-1.276-1.629-2.935-1.224l-0.642,0.156
			l0.925,3.786L85.686,42.493z"/>
		<polygon class="svg-mem-text-border" points="133.625,166.214 130.073,163.362 130.321,167.945 		"/>
		<path class="svg-mem-text-border" d="M101.798,22.165c-46.393,0-84,37.607-84,84s37.607,84,84,84s84-37.607,84-84
			S148.191,22.165,101.798,22.165z M161.375,68.278c0.524,0.885,0.858,1.59,1.002,2.115c0.146,0.528,0.152,1.067,0.016,1.617
			c-0.234,0.957-0.804,1.704-1.707,2.238c-0.967,0.572-1.925,0.702-2.873,0.39c-0.949-0.312-1.75-1.02-2.4-2.118l-0.438-0.74
			l-4.292,2.54l-0.942-1.595l10.565-6.254L161.375,68.278z M156.968,61.86l-9.618,7.633l-1.152-1.451l9.618-7.633L156.968,61.86z
			 M145.05,49.543l1.492,1.375l-3.271,8.558l8.298-3.923l1.492,1.374l-12.999,5.973L145.05,49.543z M151.535,106.165
			c0,27.469-22.268,49.736-49.736,49.736c-27.471,0-49.736-22.268-49.736-49.736s22.266-49.736,49.736-49.736
			C129.267,56.429,151.535,78.696,151.535,106.165z M130.865,54.606l-1.85-0.831l0.048-3.248l-4.795-2.155l-2.47,2.159l-1.82-0.818
			l10.892-9.411L130.865,54.606z M118.884,36.922l1.79,0.479l-3.175,11.86l-1.79-0.479L118.884,36.922z M111.059,43.516
			c-0.042-0.205-0.123-0.399-0.243-0.581c-0.119-0.182-0.282-0.359-0.484-0.529c-0.204-0.172-0.452-0.342-0.741-0.51l-1.118-0.629
			c-1.584-0.903-2.297-2.034-2.134-3.392c0.108-0.915,0.55-1.64,1.323-2.171c0.775-0.537,1.682-0.744,2.725-0.619
			c1.406,0.167,2.422,0.98,3.05,2.438l-1.599,0.707c-0.221-0.519-0.449-0.866-0.684-1.043c-0.244-0.2-0.573-0.325-0.988-0.375
			c-0.512-0.061-0.953,0.034-1.324,0.283c-0.371,0.245-0.583,0.583-0.633,1.016c-0.071,0.595,0.313,1.126,1.154,1.595l1.157,0.644
			c0.942,0.519,1.607,1.094,1.997,1.725c0.389,0.632,0.533,1.366,0.434,2.203c-0.133,1.123-0.618,2.006-1.453,2.648
			c-0.84,0.648-1.819,0.905-2.935,0.771c-1.058-0.125-1.894-0.544-2.509-1.255c-0.605-0.71-0.922-1.644-0.956-2.802l1.912-0.188
			c-0.001,0.727,0.089,1.239,0.267,1.538c0.315,0.572,0.836,0.9,1.562,0.987c0.574,0.068,1.074-0.067,1.499-0.406
			c0.424-0.339,0.672-0.803,0.742-1.392C111.109,43.942,111.102,43.721,111.059,43.516z M101.318,34.699l0.104,1.738l-4.914,0.293
			l0.176,2.945l4.771-0.284l0.104,1.738l-4.771,0.284l0.244,4.097l4.914-0.293l0.104,1.738l-6.764,0.403l-0.73-12.257
			L101.318,34.699z M84.085,37.081c1.577-0.385,2.787-0.367,3.632,0.055c0.934,0.47,1.532,1.246,1.796,2.328
			c0.207,0.844,0.143,1.63-0.193,2.355s-0.88,1.271-1.631,1.635l4.935,4.182l-2.202,0.537l-4.6-4.051l-0.324,0.08l1.192,4.882
			l-1.8,0.439l-2.914-11.928L84.085,37.081z M71.879,41.538c0.75-0.337,1.372-0.547,1.87-0.631c0.502-0.086,0.971-0.06,1.403,0.077
			c0.442,0.144,0.851,0.388,1.226,0.73c0.383,0.346,0.672,0.739,0.869,1.179c0.36,0.804,0.358,1.621-0.006,2.453
			c0.686-0.064,1.314,0.081,1.885,0.435c0.575,0.347,1.012,0.854,1.312,1.521c0.392,0.875,0.415,1.754,0.067,2.637
			c-0.206,0.54-0.508,0.985-0.906,1.34c-0.445,0.368-1.05,0.724-1.814,1.066l-2.561,1.149l-5.027-11.202L71.879,41.538z
			 M62.478,45.671l9.836,9.106L70.8,55.927l-5.428-5.185l1.932,8.55l-7.642-4.222l3.438,6.707l-1.526,1.159l-5.929-12.074
			l9.129,5.049L62.478,45.671z M50.515,57.122l1.339,1.114l-3.149,3.783l2.267,1.888l3.06-3.673l1.337,1.114l-3.058,3.672
			l3.153,2.627l3.149-3.783l1.339,1.114l-4.335,5.206l-9.436-7.855L50.515,57.122z M40.712,68.735l12.832,3.873l-0.856,1.696
			l-7.15-2.28l5.483,6.838l-8.718-0.444l6.029,4.521l-0.863,1.711l-10.622-8.254l10.418,0.537L40.712,68.735z M34.474,109.481
			c0-2.137,1.732-3.869,3.867-3.869c2.137,0,3.869,1.732,3.869,3.869c0,2.135-1.732,3.867-3.869,3.867
			C36.207,113.349,34.474,111.616,34.474,109.481z M45.412,150.815l5.626-4.97l-8.684,1.201l4.854-7.256l-6.973,2.857l-1.026-1.619
			l12.532-4.885l-5.804,8.668l10.398-1.42l-9.908,9.027L45.412,150.815z M55.034,161.352l-4.79-4.792l8.685-8.681l4.79,4.792
			l-1.231,1.231l-3.479-3.482l-2.087,2.087l3.378,3.381l-1.231,1.23l-3.378-3.381l-2.902,2.901l3.479,3.481L55.034,161.352z
			 M70.124,171.988l-1.605-1.019l2.971-6.894l-7.342,4.787l1.297-8.633l-5.091,5.558l-1.618-1.027l9.256-9.762l-1.555,10.316
			l8.8-5.718L70.124,171.988z M84.142,167.847c-0.294,0.83-0.859,1.419-1.697,1.769c0.54,0.429,0.895,0.968,1.063,1.618
			c0.176,0.647,0.143,1.315-0.102,2.004c-0.32,0.905-0.91,1.557-1.771,1.955c-0.521,0.249-1.049,0.363-1.581,0.344
			c-0.576-0.041-1.259-0.202-2.049-0.481l-2.646-0.937l4.098-11.574l1.739,0.615c0.773,0.273,1.37,0.552,1.788,0.835
			c0.422,0.284,0.742,0.626,0.961,1.024c0.221,0.409,0.349,0.868,0.383,1.375C84.365,166.907,84.303,167.392,84.142,167.847z
			 M95.36,170.304c-0.14,0.858-0.505,1.557-1.097,2.094c-0.592,0.539-1.305,0.829-2.139,0.871l2.917,5.773l-2.237-0.362
			l-2.658-5.522l-0.33-0.053l-0.803,4.962l-1.829-0.296l1.961-12.122l2.143,0.348c1.602,0.259,2.709,0.747,3.323,1.464
			C95.288,168.257,95.538,169.204,95.36,170.304z M99.642,179.275l-0.271-12.276l6.774-0.149l0.038,1.741l-4.922,0.108l0.066,2.95
			l4.777-0.106l0.039,1.741l-4.778,0.106l0.091,4.102l4.922-0.108l0.038,1.741L99.642,179.275z M117.298,176.63
			c-0.609,0.869-1.467,1.406-2.571,1.612c-1.048,0.195-1.971,0.046-2.77-0.45c-0.789-0.497-1.372-1.294-1.748-2.388l1.77-0.751
			c0.215,0.693,0.452,1.156,0.712,1.389c0.472,0.451,1.068,0.609,1.787,0.476c0.567-0.106,1.004-0.384,1.309-0.834
			s0.401-0.967,0.294-1.551c-0.045-0.234-0.117-0.443-0.219-0.626c-0.101-0.183-0.236-0.344-0.405-0.481
			c-0.169-0.139-0.376-0.26-0.621-0.362c-0.246-0.102-0.532-0.19-0.858-0.264l-1.255-0.268c-1.782-0.39-2.799-1.257-3.049-2.601
			c-0.17-0.905,0.036-1.729,0.615-2.467c0.579-0.744,1.385-1.212,2.416-1.404c1.392-0.26,2.604,0.213,3.638,1.417l-1.314,1.151
			c-0.366-0.429-0.688-0.692-0.964-0.791c-0.292-0.118-0.644-0.14-1.056-0.062c-0.506,0.095-0.898,0.315-1.179,0.665
			c-0.28,0.344-0.382,0.729-0.302,1.157c0.109,0.589,0.636,0.982,1.578,1.179l1.297,0.269c1.053,0.215,1.859,0.563,2.421,1.051
			c0.56,0.486,0.916,1.145,1.071,1.974C118.102,174.78,117.903,175.767,117.298,176.63z M123.096,175.906l-3.902-11.643l1.757-0.589
			l3.903,11.643L123.096,175.906z M137.627,169.449l-2.525-2.044l-4.656,2.441l0.174,3.276l-1.768,0.927l-0.679-14.38l11.249,8.837
			L137.627,169.449z M138.946,153.646l1.421-1.446l8.448,3.545l-3.652-8.422l1.422-1.446l5.549,13.186L138.946,153.646z
			 M157.708,151.17l-9.936-7.215l1.089-1.498l9.935,7.214L157.708,151.17z M161.786,145.173l-10.802-5.838l0.999-1.848
			c0.489-0.904,0.922-1.554,1.297-1.947c0.378-0.398,0.838-0.68,1.379-0.846c0.941-0.292,1.874-0.188,2.798,0.311
			c0.989,0.535,1.593,1.289,1.813,2.265c0.221,0.974,0.026,2.024-0.581,3.147l-0.408,0.756l4.386,2.371L161.786,145.173z
			 M167.658,113.349c-2.137,0-3.867-1.732-3.867-3.867c0-2.137,1.73-3.869,3.867-3.869c2.135,0,3.869,1.732,3.869,3.869
			C171.527,111.616,169.792,113.349,167.658,113.349z"/>
		<path class="svg-mem-text-border" d="M156.584,136.567c-1.114-0.603-2.089-0.132-2.924,1.412l-0.291,0.538l3.4,1.838l0.328-0.608
			C157.909,138.25,157.737,137.19,156.584,136.567z"/>
		<path class="svg-mem-text-border" d="M75.769,45.069c0.169-0.409,0.131-0.885-0.111-1.427c-0.237-0.527-0.566-0.859-0.988-0.999
			c-0.423-0.139-0.92-0.08-1.491,0.176l-0.595,0.268l1.461,3.258l0.531-0.238C75.205,45.825,75.602,45.479,75.769,45.069z"/>
		<polygon class="svg-mem-text-border" points="129.139,44.074 125.686,47.1 129.087,48.629 		"/>
	</g>
	<path class="svg-mem-ribbon svg-mem-ribbon--ani" d="M202.807,73.414c-3.197-9.849-16.774-14.887-23.183-23.72c-6.407-8.833-6.986-23.304-15.354-29.397
		c-8.679-6.312-22.701-2.322-32.692-5.566C121.484,11.451,112.48,0.015,101.866,0C91.363-0.015,82.338,11.358,72.137,14.673
		c-9.849,3.191-23.849-0.84-32.684,5.569c-8.83,6.41-9.338,20.972-15.434,29.34C17.71,58.258,4.093,63.303,0.851,73.298
		C-2.425,83.389,5.652,95.5,5.638,106.109c-0.016,10.507-8.157,22.599-4.847,32.807c3.194,9.847,16.773,14.885,23.183,23.717
		c6.405,8.836,6.986,23.307,15.356,29.396c8.677,6.318,22.699,2.326,32.69,5.57c10.091,3.274,19.098,14.716,29.71,14.73
		c10.502,0.015,19.526-11.362,29.732-14.673c9.844-3.194,23.847,0.84,32.679-5.571c8.833-6.408,9.341-20.97,15.437-29.341
		c6.31-8.673,19.924-13.718,23.169-23.709c3.278-10.095-4.802-22.206-4.789-32.815C197.976,95.717,206.118,83.62,202.807,73.414z
		 M101.798,193.601c-48.29,0-87.436-39.146-87.436-87.436s39.146-87.436,87.436-87.436s87.436,39.146,87.436,87.436
		S150.088,193.601,101.798,193.601z"/>
	<g>
		<path class="svg-mem-inside" d="M101.798,152.401c21.641,0,38.911-13.325,45.003-32.991c-5.33-8.401-12.002-1.582-17.002-6.725v-2.246
			c1-2.379,3.303-3.587,4.082-6.86c0.58-2.436,2.147-6.98,0.289-14.97c-1.777-7.643-6.966-8.444-10.135-8.444h-2.448
			c-3.17,0-11.512,0.28-13.105,9.448c-0.063,0.365-0.115-0.013-0.158,0.382c-0.166,1.594-0.17,5.157,0.854,11.106
			c0.256,0.951,0.347,1.674,0.688,2.55c1.016,2.632,1.934,4.75,3.934,6.788v2.246c-3,3.756-9.258,2.022-14.085,4.014
			c-3.838-1.862-7.915-1.755-11.915-5.307v-1.894l0.977-0.262c3.854-0.02,10.447-2.235,10.447-2.235
			c-2.519-2.577-2.896-4.102-4.55-15.908c-1.656-11.806-11.819-11.695-12.59-11.695c-0.773,0-10.984-0.11-12.641,11.695
			c-1.654,11.805-2.199,13.329-4.718,15.907c0,0,6.52,2.156,10.383,2.233c0.071,0.086,0.693,0.18,0.693,0.265v1.894
			c-5,5.799-15.042,1.229-17.781,11.886C65.196,140.924,81.605,152.401,101.798,152.401z"/>
	</g>
</g>
</svg>
