<?xml version="1.0" encoding="utf-8"?>
<!-- Generator: Adobe Illustrator 16.0.0, SVG Export Plug-In . SVG Version: 6.00 Build 0)  -->
<!DOCTYPE svg PUBLIC "-//W3C//DTD SVG 1.1//EN" "http://www.w3.org/Graphics/SVG/1.1/DTD/svg11.dtd">
<svg version="1.1" id="Layer_1" xmlns="http://www.w3.org/2000/svg" xmlns:xlink="http://www.w3.org/1999/xlink" x="0px" y="0px"
	 width="203.6px" height="212.33px" viewBox="0 0 203.6 212.33" enable-background="new 0 0 203.6 212.33" xml:space="preserve">
<g>
	<path fill="#FDF1C9" d="M52.941,106.165c0,26.983,21.872,48.857,48.857,48.857c26.983,0,48.857-21.874,48.857-48.857
		s-21.874-48.857-48.857-48.857C74.813,57.308,52.941,79.182,52.941,106.165z M108.208,90.333c0.043-0.388,0.095-0.19,0.155-0.548
		c1.565-9.007,9.76-9.403,12.874-9.403h2.405c3.112,0,8.143,0.909,9.891,8.417c1.823,7.85,0.461,12.32-0.109,14.713
		c-0.764,3.215-2.898,4.514-3.898,6.854v2.205c5,5.051,11.355-1.646,16.592,6.604c-5.984,19.319-22.938,32.409-44.195,32.409
		c-19.836,0-36.384-11.275-43.435-28.608c2.691-10.466,12.038-5.978,17.038-11.675v-1.86c0-0.083-0.245-0.177-0.314-0.26
		c-3.795-0.076-9.953-2.193-9.953-2.193c2.476-2.533,3.064-4.031,4.69-15.626c1.627-11.598,11.677-11.49,12.437-11.49
		c0.758,0,10.74-0.108,12.366,11.49c1.625,11.597,1.969,13.095,4.444,15.626c0,0-6.667,2.178-10.454,2.197l-1.217,0.256v1.86
		c4,3.489,8.163,3.382,11.935,5.212c4.742-1.956,11.065-0.254,14.065-3.942v-2.205c-2-2.003-2.837-4.07-3.832-6.657
		c-0.337-0.859-0.343-1.558-0.593-2.491C108.095,95.373,108.046,91.899,108.208,90.333z"/>
	<circle fill="#FDF1C9" cx="39.464" cy="109.422" r="3.8"/>
	<path fill="#FDF1C9" d="M166.495,105.623c-2.1,0-3.801,1.701-3.801,3.799c0,2.1,1.701,3.8,3.801,3.8c2.096,0,3.799-1.7,3.799-3.8
		C170.294,107.323,168.591,105.623,166.495,105.623z"/>
	<path fill="#FDF1C9" d="M187.688,106.165c0-47.436-38.453-85.89-85.89-85.89c-47.436,0-85.89,38.454-85.89,85.89
		c0,47.437,38.454,85.89,85.89,85.89C149.235,192.055,187.688,153.602,187.688,106.165z M101.799,188.681
		c-45.572,0-82.515-36.942-82.515-82.516c0-45.572,36.943-82.515,82.515-82.515c45.573,0,82.516,36.943,82.516,82.515
		C184.314,151.738,147.372,188.681,101.799,188.681z"/>
	<path fill="#F5C41F" d="M77.68,51.706c0.75-0.338,1.236-0.731,1.456-1.185c0.229-0.484,0.232-0.971,0.012-1.46
		c-0.213-0.476-0.571-0.794-1.071-0.958c-0.49-0.163-1.182-0.044-2.075,0.357l-0.841,0.377l1.493,3.329L77.68,51.706z"/>
	<path fill="#F5C41F" d="M80.2,168.779l-0.869-0.307l-1.218,3.438l1.061,0.378c0.776,0.273,1.397,0.324,1.87,0.148
		c0.499-0.194,0.839-0.544,1.018-1.05c0.173-0.49,0.136-0.969-0.115-1.434C81.706,169.499,81.124,169.107,80.2,168.779z"/>
	<path fill="#F5C41F" d="M76.231,46.195c0.164-0.403,0.127-0.869-0.11-1.402c-0.234-0.517-0.556-0.845-0.972-0.981
		c-0.415-0.136-0.904-0.079-1.464,0.173l-0.583,0.263l1.435,3.2l0.52-0.233C75.674,46.938,76.066,46.597,76.231,46.195z"/>
	<path fill="#F5C41F" d="M81.614,163.943l-0.604-0.215l-1.17,3.307l0.536,0.191c0.639,0.226,1.156,0.25,1.554,0.073
		c0.396-0.177,0.692-0.54,0.887-1.09c0.189-0.537,0.181-0.994-0.023-1.38C82.585,164.444,82.193,164.148,81.614,163.943z"/>
	<path fill="#F5C41F" d="M85.972,43.665c1.674-0.409,2.355-1.252,2.042-2.532c-0.293-1.2-1.254-1.6-2.882-1.203l-0.63,0.154
		l0.908,3.718L85.972,43.665z"/>
	<path fill="#F5C41F" d="M158.77,73.334c1.072-0.633,1.167-1.693,0.29-3.175l-0.308-0.518l-3.267,1.933l0.346,0.585
		C156.685,73.599,157.663,73.99,158.77,73.334z"/>
	<polygon fill="#F5C41F" points="128.657,45.218 125.265,48.19 128.606,49.691 	"/>
	<path fill="#F5C41F" d="M101.799,23.65c-45.572,0-82.515,36.943-82.515,82.515c0,45.573,36.943,82.516,82.515,82.516
		c45.573,0,82.516-36.942,82.516-82.516C184.314,60.593,147.372,23.65,101.799,23.65z M160.321,68.995
		c0.516,0.869,0.844,1.562,0.984,2.077c0.146,0.52,0.15,1.051,0.015,1.589c-0.23,0.94-0.788,1.674-1.675,2.199
		c-0.948,0.563-1.892,0.69-2.824,0.384c-0.933-0.309-1.718-1.003-2.358-2.083l-0.428-0.727l-4.217,2.496l-0.925-1.567l10.379-6.144
		L160.321,68.995z M155.994,62.689l-9.448,7.498l-1.131-1.426l9.445-7.498L155.994,62.689z M144.287,50.59l1.465,1.351l-3.214,8.406
		l8.154-3.853l1.465,1.349l-12.769,5.866L144.287,50.59z M150.656,106.165c0,26.983-21.874,48.857-48.857,48.857
		c-26.985,0-48.857-21.874-48.857-48.857s21.872-48.857,48.857-48.857C128.782,57.308,150.656,79.182,150.656,106.165z
		 M130.352,55.563l-1.817-0.817l0.049-3.189l-4.711-2.117l-2.428,2.121l-1.786-0.804l10.698-9.245L130.352,55.563z M118.583,38.192
		l1.758,0.471l-3.118,11.65l-1.76-0.47L118.583,38.192z M110.896,44.669c-0.04-0.202-0.12-0.391-0.237-0.571
		c-0.119-0.178-0.277-0.353-0.478-0.521c-0.2-0.168-0.443-0.334-0.727-0.5l-1.101-0.618c-1.556-0.888-2.254-1.998-2.096-3.331
		c0.108-0.899,0.54-1.61,1.302-2.134c0.761-0.526,1.652-0.73,2.676-0.608c1.382,0.165,2.381,0.963,2.994,2.395l-1.567,0.695
		c-0.218-0.509-0.442-0.852-0.673-1.025c-0.24-0.196-0.562-0.319-0.971-0.367c-0.503-0.06-0.935,0.033-1.3,0.277
		c-0.366,0.241-0.572,0.573-0.622,0.998c-0.07,0.584,0.307,1.107,1.133,1.567l1.137,0.631c0.925,0.51,1.579,1.075,1.962,1.694
		c0.382,0.621,0.523,1.342,0.426,2.166c-0.129,1.103-0.607,1.97-1.427,2.601c-0.827,0.637-1.788,0.889-2.883,0.759
		c-1.04-0.124-1.86-0.536-2.464-1.235c-0.594-0.697-0.908-1.613-0.94-2.751l1.879-0.184c0,0.712,0.085,1.216,0.261,1.51
		c0.312,0.562,0.822,0.885,1.538,0.969c0.562,0.068,1.053-0.064,1.471-0.398c0.416-0.333,0.661-0.789,0.728-1.367
		C110.944,45.087,110.938,44.871,110.896,44.669z M101.327,36.008l0.102,1.709l-4.828,0.287l0.172,2.893l4.687-0.279l0.102,1.708
		l-4.687,0.279l0.242,4.024l4.827-0.289l0.102,1.708l-6.644,0.396l-0.719-12.041L101.327,36.008z M84.4,38.348
		c1.548-0.378,2.737-0.361,3.568,0.054c0.915,0.461,1.503,1.224,1.764,2.287c0.203,0.829,0.138,1.601-0.191,2.314
		c-0.33,0.712-0.864,1.248-1.602,1.605l4.847,4.107l-2.163,0.528l-4.518-3.979l-0.319,0.079l1.171,4.796l-1.768,0.431l-2.863-11.717
		L84.4,38.348z M72.409,42.726c0.737-0.331,1.348-0.537,1.837-0.619c0.493-0.084,0.953-0.059,1.379,0.075
		c0.435,0.142,0.835,0.381,1.204,0.718c0.375,0.339,0.66,0.726,0.854,1.158c0.354,0.789,0.352,1.593-0.006,2.409
		c0.673-0.062,1.291,0.08,1.853,0.428c0.563,0.34,0.994,0.837,1.288,1.494c0.385,0.86,0.408,1.723,0.065,2.59
		c-0.201,0.53-0.498,0.969-0.891,1.317c-0.437,0.361-1.03,0.71-1.781,1.047l-2.517,1.128l-4.938-11.003L72.409,42.726z
		 M63.173,46.786l9.663,8.944l-1.486,1.13l-5.333-5.093l1.899,8.398l-7.506-4.147l3.376,6.588l-1.497,1.138l-5.826-11.86
		l8.968,4.959L63.173,46.786z M51.423,58.035l1.315,1.095l-3.096,3.716L51.87,64.7l3.004-3.608l1.315,1.095l-3.004,3.607
		l3.097,2.581l3.094-3.716l1.315,1.095l-4.259,5.114l-9.268-7.717L51.423,58.035z M41.792,69.443l12.605,3.805l-0.841,1.667
		l-7.024-2.24l5.387,6.717l-8.565-0.436l5.923,4.44l-0.848,1.681l-10.435-8.108l10.235,0.528L41.792,69.443z M35.665,109.422
		c0-2.099,1.702-3.799,3.798-3.799c2.1,0,3.801,1.701,3.801,3.799c0,2.1-1.702,3.8-3.801,3.8
		C37.367,113.222,35.665,111.521,35.665,109.422z M46.409,150.025l5.527-4.883l-8.53,1.181l4.769-7.126l-6.85,2.807l-1.008-1.59
		l12.311-4.8l-5.701,8.517l10.214-1.396l-9.732,8.866L46.409,150.025z M55.861,160.375l-4.706-4.706l8.531-8.528l4.706,4.708
		l-1.209,1.21l-3.418-3.422l-2.05,2.051l3.318,3.321l-1.209,1.21l-3.318-3.321l-2.852,2.849l3.418,3.421L55.861,160.375z
		 M70.685,170.825l-1.577-1.001l2.918-6.771l-7.212,4.702l1.274-8.481l-5.001,5.459l-1.59-1.01l9.093-9.589l-1.527,10.136
		l8.644-5.618L70.685,170.825z M84.455,166.757c-0.289,0.816-0.845,1.395-1.667,1.737c0.529,0.422,0.878,0.95,1.044,1.59
		c0.172,0.636,0.141,1.291-0.1,1.969c-0.315,0.888-0.895,1.528-1.74,1.92c-0.513,0.244-1.031,0.356-1.553,0.337
		c-0.567-0.041-1.237-0.198-2.014-0.473l-2.599-0.921l4.026-11.369l1.708,0.604c0.76,0.27,1.346,0.545,1.756,0.821
		c0.415,0.28,0.73,0.615,0.945,1.007c0.215,0.401,0.341,0.854,0.375,1.351C84.673,165.834,84.613,166.31,84.455,166.757z
		 M95.475,169.17c-0.138,0.843-0.496,1.529-1.078,2.057c-0.581,0.529-1.282,0.815-2.102,0.856l2.866,5.671l-2.198-0.356
		l-2.611-5.425l-0.323-0.053l-0.789,4.874l-1.797-0.289l1.926-11.907l2.105,0.341c1.574,0.255,2.661,0.732,3.264,1.438
		C95.403,167.16,95.649,168.09,95.475,169.17z M99.681,177.982l-0.268-12.059l6.655-0.146l0.038,1.71l-4.836,0.107l0.066,2.898
		l4.691-0.106l0.039,1.711l-4.694,0.104l0.089,4.028l4.835-0.105l0.038,1.71L99.681,177.982z M117.024,175.385
		c-0.599,0.853-1.441,1.381-2.525,1.584c-1.03,0.191-1.936,0.044-2.721-0.442c-0.774-0.489-1.347-1.272-1.716-2.346l1.737-0.737
		c0.212,0.681,0.445,1.136,0.698,1.363c0.465,0.442,1.051,0.6,1.756,0.467c0.557-0.104,0.986-0.377,1.287-0.819
		c0.298-0.44,0.395-0.95,0.287-1.523c-0.045-0.23-0.114-0.436-0.215-0.615c-0.098-0.179-0.233-0.337-0.398-0.471
		c-0.166-0.138-0.369-0.257-0.61-0.356c-0.24-0.101-0.522-0.188-0.842-0.26l-1.233-0.264c-1.751-0.383-2.749-1.233-2.996-2.555
		c-0.166-0.888,0.036-1.697,0.604-2.421c0.569-0.731,1.36-1.191,2.374-1.38c1.367-0.256,2.559,0.209,3.574,1.393l-1.293,1.13
		c-0.359-0.422-0.674-0.682-0.946-0.777c-0.285-0.116-0.63-0.137-1.035-0.062c-0.498,0.094-0.884,0.311-1.157,0.654
		c-0.276,0.337-0.378,0.715-0.298,1.136c0.108,0.578,0.625,0.965,1.55,1.158l1.275,0.265c1.032,0.211,1.824,0.553,2.376,1.031
		c0.552,0.478,0.901,1.125,1.054,1.939C117.814,173.567,117.618,174.536,117.024,175.385z M122.721,174.673l-3.833-11.436
		l1.726-0.578l3.834,11.436L122.721,174.673z M136.995,168.331l-2.48-2.009l-4.574,2.399l0.17,3.217l-1.735,0.911l-0.668-14.125
		l11.052,8.681L136.995,168.331z M138.289,152.807l1.396-1.42l8.299,3.483l-3.588-8.274l1.397-1.422l5.45,12.954L138.289,152.807z
		 M156.722,150.375l-9.76-7.088l1.067-1.471l9.759,7.085L156.722,150.375z M160.725,144.483l-10.608-5.735l0.981-1.814
		c0.479-0.889,0.904-1.527,1.272-1.914c0.371-0.391,0.823-0.665,1.354-0.829c0.924-0.287,1.842-0.185,2.748,0.305
		c0.972,0.524,1.565,1.265,1.782,2.226c0.217,0.956,0.026,1.986-0.57,3.092l-0.401,0.742l4.309,2.328L160.725,144.483z
		 M166.495,113.222c-2.1,0-3.801-1.7-3.801-3.8c0-2.099,1.701-3.799,3.801-3.799c2.096,0,3.799,1.701,3.799,3.799
		C170.294,111.521,168.591,113.222,166.495,113.222z"/>
	<path fill="#F5C41F" d="M91.532,166.68l-0.64-0.102l-0.61,3.777l0.569,0.093c1.703,0.275,2.659-0.237,2.869-1.537
		C93.917,167.691,93.187,166.949,91.532,166.68z"/>
	<polygon fill="#F5C41F" points="133.062,165.152 129.574,162.351 129.818,166.853 	"/>
	<path fill="#F5C41F" d="M155.617,136.029c-1.096-0.592-2.053-0.128-2.873,1.388l-0.284,0.528l3.339,1.806l0.322-0.598
		C156.918,137.684,156.749,136.643,155.617,136.029z"/>
	<polygon fill="#FDF1C9" points="46.926,144.131 52.627,135.614 40.316,140.414 41.324,142.004 48.174,139.197 43.405,146.323 
		51.936,145.143 46.409,150.025 47.408,151.602 57.14,142.735 	"/>
	<polygon fill="#FDF1C9" points="56.505,152.897 59.823,156.219 61.032,155.009 57.714,151.688 59.764,149.637 63.182,153.059 
		64.392,151.849 59.686,147.141 51.155,155.669 55.861,160.375 57.071,159.167 53.653,155.746 	"/>
	<polygon fill="#FDF1C9" points="68.589,154.135 59.496,163.724 61.086,164.733 66.087,159.274 64.813,167.756 72.025,163.054 
		69.107,169.824 70.685,170.825 75.706,158.652 67.062,164.271 	"/>
	<path fill="#FDF1C9" d="M83.316,162.972c-0.41-0.276-0.997-0.552-1.756-0.821l-1.708-0.604l-4.026,11.369l2.599,0.921
		c0.776,0.274,1.447,0.432,2.014,0.473c0.522,0.02,1.041-0.093,1.553-0.337c0.845-0.392,1.425-1.032,1.74-1.92
		c0.24-0.678,0.272-1.333,0.1-1.969c-0.166-0.64-0.515-1.168-1.044-1.59c0.822-0.343,1.378-0.921,1.667-1.737
		c0.158-0.447,0.218-0.923,0.182-1.428c-0.034-0.497-0.16-0.949-0.375-1.351C84.046,163.587,83.731,163.252,83.316,162.972z
		 M82.062,171.387c-0.179,0.506-0.52,0.855-1.018,1.05c-0.472,0.176-1.094,0.125-1.87-0.148l-1.061-0.378l1.218-3.438l0.869,0.307
		c0.924,0.328,1.506,0.72,1.747,1.174C82.198,170.418,82.235,170.896,82.062,171.387z M82.816,166.21
		c-0.194,0.55-0.491,0.913-0.887,1.09c-0.397,0.177-0.915,0.152-1.554-0.073l-0.536-0.191l1.17-3.307l0.604,0.215
		c0.579,0.205,0.972,0.501,1.179,0.887C82.997,165.216,83.006,165.673,82.816,166.21z"/>
	<path fill="#FDF1C9" d="M91.474,164.938l-2.105-0.341l-1.926,11.907l1.797,0.289l0.789-4.874l0.323,0.053l2.611,5.425l2.198,0.356
		l-2.866-5.671c0.82-0.041,1.521-0.327,2.102-0.856c0.582-0.527,0.94-1.214,1.078-2.057c0.174-1.08-0.071-2.01-0.737-2.793
		C94.135,165.671,93.048,165.193,91.474,164.938z M93.72,168.911c-0.21,1.3-1.167,1.812-2.869,1.537l-0.569-0.093l0.61-3.777
		l0.64,0.102C93.187,166.949,93.917,167.691,93.72,168.911z"/>
	<polygon fill="#FDF1C9" points="101.462,176.23 101.374,172.202 106.067,172.098 106.028,170.387 101.337,170.493 101.271,167.595 
		106.106,167.487 106.068,165.777 99.414,165.924 99.681,177.982 106.336,177.835 106.298,176.125 	"/>
	<path fill="#FDF1C9" d="M116.558,170.537c-0.552-0.479-1.344-0.82-2.376-1.031l-1.275-0.265c-0.925-0.193-1.441-0.58-1.55-1.158
		c-0.08-0.421,0.021-0.799,0.298-1.136c0.273-0.344,0.659-0.561,1.157-0.654c0.405-0.075,0.75-0.055,1.035,0.062
		c0.272,0.096,0.587,0.355,0.946,0.777l1.293-1.13c-1.016-1.184-2.207-1.648-3.574-1.393c-1.014,0.188-1.805,0.648-2.374,1.38
		c-0.568,0.724-0.771,1.533-0.604,2.421c0.247,1.321,1.245,2.172,2.996,2.555l1.233,0.264c0.319,0.072,0.602,0.159,0.842,0.26
		c0.241,0.1,0.444,0.219,0.61,0.356c0.165,0.134,0.301,0.292,0.398,0.471c0.101,0.18,0.17,0.385,0.215,0.615
		c0.107,0.573,0.011,1.083-0.287,1.523c-0.301,0.442-0.73,0.716-1.287,0.819c-0.705,0.133-1.291-0.024-1.756-0.467
		c-0.253-0.228-0.486-0.683-0.698-1.363l-1.737,0.737c0.369,1.073,0.941,1.856,1.716,2.346c0.785,0.486,1.69,0.634,2.721,0.442
		c1.084-0.203,1.927-0.731,2.525-1.584c0.594-0.849,0.79-1.817,0.587-2.908C117.459,171.662,117.109,171.015,116.558,170.537z"/>
	
		<rect x="115.637" y="167.756" transform="matrix(-0.3178 -0.9482 0.9482 -0.3178 0.4125 337.6288)" fill="#FDF1C9" width="12.061" height="1.821"/>
	<path fill="#FDF1C9" d="M128.375,172.85l1.735-0.911l-0.17-3.217l4.574-2.399l2.48,2.009l1.764-0.926l-11.052-8.681L128.375,172.85
		z M133.062,165.152l-3.244,1.7l-0.244-4.502L133.062,165.152z"/>
	<polygon fill="#FDF1C9" points="144.396,146.596 147.984,154.87 139.686,151.387 138.289,152.807 151.244,158.128 145.794,145.174 
			"/>
	
		<rect x="146.344" y="145.185" transform="matrix(-0.8091 -0.5876 0.5876 -0.8091 189.8186 353.8432)" fill="#FDF1C9" width="12.062" height="1.819"/>
	<path fill="#FDF1C9" d="M157.685,139.812c0.597-1.105,0.787-2.136,0.57-3.092c-0.217-0.961-0.811-1.701-1.782-2.226
		c-0.906-0.489-1.824-0.592-2.748-0.305c-0.531,0.164-0.983,0.438-1.354,0.829c-0.368,0.387-0.794,1.025-1.272,1.914l-0.981,1.814
		l10.608,5.735l0.867-1.601l-4.309-2.328L157.685,139.812z M156.121,139.153l-0.322,0.598l-3.339-1.806l0.284-0.528
		c0.82-1.516,1.777-1.979,2.873-1.388C156.749,136.643,156.918,137.684,156.121,139.153z"/>
	<polygon fill="#FDF1C9" points="48.43,85.076 49.278,83.395 43.354,78.955 51.919,79.391 46.533,72.674 53.557,74.914 
		54.398,73.248 41.792,69.443 48.23,77.496 37.995,76.968 	"/>
	<polygon fill="#FDF1C9" points="60.692,65.753 59.376,64.658 56.283,68.375 53.186,65.794 56.19,62.187 54.875,61.092 51.87,64.7 
		49.643,62.846 52.738,59.13 51.423,58.035 47.165,63.15 56.433,70.867 	"/>
	<polygon fill="#FDF1C9" points="62.288,63.746 63.785,62.608 60.408,56.02 67.915,60.167 66.016,51.768 71.349,56.861 
		72.835,55.73 63.173,46.786 65.429,56.846 56.461,51.886 	"/>
	<path fill="#FDF1C9" d="M78.21,53.343c0.751-0.337,1.345-0.686,1.781-1.047c0.393-0.348,0.689-0.787,0.891-1.317
		c0.342-0.867,0.32-1.73-0.065-2.59c-0.294-0.657-0.724-1.154-1.288-1.494c-0.562-0.348-1.179-0.49-1.853-0.428
		c0.357-0.816,0.359-1.621,0.006-2.409c-0.194-0.432-0.478-0.818-0.854-1.158c-0.369-0.337-0.769-0.576-1.204-0.718
		c-0.426-0.134-0.886-0.16-1.379-0.075c-0.489,0.082-1.1,0.289-1.837,0.619l-1.653,0.742l4.938,11.003L78.21,53.343z M74.537,47.448
		l-1.435-3.2l0.583-0.263c0.561-0.252,1.049-0.309,1.464-0.173c0.416,0.137,0.738,0.464,0.972,0.981
		c0.237,0.533,0.274,0.999,0.11,1.402c-0.165,0.402-0.557,0.742-1.174,1.02L74.537,47.448z M76.001,48.46
		c0.894-0.401,1.585-0.521,2.075-0.357c0.5,0.164,0.858,0.482,1.071,0.958c0.22,0.489,0.216,0.976-0.012,1.46
		c-0.22,0.454-0.705,0.847-1.456,1.185l-1.027,0.46l-1.493-3.329L76.001,48.46z"/>
	<path fill="#FDF1C9" d="M86.958,50.14l-1.171-4.796l0.319-0.079l4.518,3.979l2.163-0.528l-4.847-4.107
		c0.738-0.357,1.272-0.893,1.602-1.605c0.33-0.713,0.394-1.485,0.191-2.314c-0.261-1.063-0.849-1.826-1.764-2.287
		c-0.832-0.415-2.021-0.433-3.568-0.054l-2.073,0.505l2.863,11.717L86.958,50.14z M85.132,39.93
		c1.628-0.397,2.589,0.003,2.882,1.203c0.313,1.28-0.368,2.124-2.042,2.532l-0.562,0.137l-0.908-3.718L85.132,39.93z"/>
	<polygon fill="#FDF1C9" points="102.045,48.048 101.943,46.341 97.117,46.629 96.875,42.605 101.562,42.326 101.46,40.618 
		96.773,40.897 96.601,38.004 101.429,37.717 101.327,36.008 94.683,36.404 95.401,48.445 	"/>
	<path fill="#FDF1C9" d="M110.188,46.688c-0.418,0.333-0.908,0.466-1.471,0.398c-0.716-0.084-1.227-0.407-1.538-0.969
		c-0.176-0.293-0.261-0.797-0.261-1.51l-1.879,0.184c0.032,1.138,0.347,2.054,0.94,2.751c0.604,0.699,1.424,1.111,2.464,1.235
		c1.095,0.129,2.056-0.122,2.883-0.759c0.819-0.631,1.298-1.498,1.427-2.601c0.098-0.823-0.044-1.544-0.426-2.166
		c-0.383-0.62-1.037-1.185-1.962-1.694l-1.137-0.631c-0.826-0.46-1.203-0.983-1.133-1.567c0.05-0.425,0.256-0.757,0.622-0.998
		c0.365-0.244,0.797-0.337,1.3-0.277c0.408,0.048,0.73,0.171,0.971,0.367c0.23,0.173,0.455,0.516,0.673,1.025l1.567-0.695
		c-0.613-1.432-1.612-2.23-2.994-2.395c-1.023-0.122-1.915,0.082-2.676,0.608c-0.762,0.523-1.193,1.235-1.302,2.134
		c-0.158,1.333,0.54,2.443,2.096,3.331l1.101,0.618c0.283,0.166,0.526,0.332,0.727,0.5c0.2,0.167,0.358,0.342,0.478,0.521
		c0.117,0.18,0.197,0.37,0.237,0.571c0.042,0.202,0.049,0.418,0.021,0.651C110.85,45.899,110.604,46.354,110.188,46.688z"/>
	
		<rect x="116.992" y="38.222" transform="matrix(0.966 0.2587 -0.2587 0.966 15.4591 -28.991)" fill="#FDF1C9" width="1.82" height="12.061"/>
	<path fill="#FDF1C9" d="M121.444,51.561l2.428-2.121l4.711,2.117l-0.049,3.189l1.817,0.817l0.005-14.051l-10.698,9.245
		L121.444,51.561z M128.657,45.218l-0.051,4.474l-3.342-1.501L128.657,45.218z"/>
	<polygon fill="#FDF1C9" points="150.692,56.494 142.538,60.347 145.752,51.94 144.287,50.59 139.389,63.709 152.157,57.843 	"/>
	
		<rect x="144.672" y="64.815" transform="matrix(-0.7833 0.6216 -0.6216 -0.7833 309.6077 23.5281)" fill="#FDF1C9" width="12.062" height="1.821"/>
	<path fill="#FDF1C9" d="M149.818,74.931l4.217-2.496l0.428,0.727c0.641,1.08,1.426,1.773,2.358,2.083
		c0.933,0.306,1.876,0.179,2.824-0.384c0.887-0.525,1.444-1.259,1.675-2.199c0.136-0.539,0.131-1.07-0.015-1.589
		c-0.141-0.515-0.469-1.208-0.984-2.077l-1.049-1.775l-10.379,6.144L149.818,74.931z M158.752,69.642l0.308,0.518
		c0.877,1.482,0.782,2.542-0.29,3.175c-1.106,0.655-2.085,0.264-2.938-1.175l-0.346-0.585L158.752,69.642z"/>
	<path fill="#F5C41F" d="M201.022,73.993c-3.142-9.674-16.479-14.624-22.772-23.3c-6.294-8.677-6.862-22.892-15.083-28.877
		c-8.526-6.201-22.301-2.282-32.116-5.467c-9.914-3.222-18.76-14.456-29.186-14.471C91.548,1.862,82.683,13.034,72.662,16.29
		c-9.674,3.135-23.427-0.825-32.105,5.471c-8.674,6.297-9.173,20.601-15.161,28.821C19.198,59.105,5.821,64.06,2.636,73.879
		c-3.218,9.912,4.716,21.809,4.703,32.231c-0.016,10.32-8.013,22.201-4.761,32.225c3.138,9.675,16.477,14.621,22.773,23.299
		c6.292,8.68,6.862,22.896,15.084,28.876c8.523,6.206,22.298,2.286,32.112,5.473c9.913,3.218,18.76,14.455,29.186,14.47
		c10.318,0.015,19.18-11.162,29.208-14.413c9.668-3.138,23.425,0.825,32.101-5.473c8.677-6.296,9.176-20.601,15.164-28.821
		c6.197-8.521,19.571-13.478,22.758-23.29c3.222-9.919-4.716-21.815-4.705-32.237C196.275,95.901,204.273,84.019,201.022,73.993z
		 M15.909,106.165c0-47.436,38.454-85.89,85.89-85.89c47.437,0,85.89,38.454,85.89,85.89c0,47.437-38.453,85.89-85.89,85.89
		C54.363,192.055,15.909,153.602,15.909,106.165z"/>
	<path fill="#DEAD0A" d="M109.693,103.708c0.995,2.587,1.832,4.654,3.832,6.657v2.205c-3,3.688-9.323,1.986-14.065,3.942
		c-3.771-1.83-7.935-1.723-11.935-5.212v-1.86l1.221-0.256c3.786-0.02,10.393-2.197,10.393-2.197
		c-2.474-2.531-2.779-4.029-4.405-15.626c-1.626-11.599-11.577-11.49-12.334-11.49c-0.76,0-10.774-0.108-12.4,11.49
		c-1.626,11.596-2.152,13.093-4.628,15.626c0,0,6.042,2.117,9.837,2.193c0.07,0.083,0.317,0.177,0.317,0.26v1.86
		c-5,5.697-14.408,1.209-17.099,11.675c7.051,17.333,23.421,28.608,43.256,28.608c21.259,0,38.393-13.09,44.376-32.409
		c-5.234-8.251-11.533-1.554-16.533-6.604v-2.205c1-2.34,3.135-3.523,3.898-6.74c0.57-2.393,2.056-6.978,0.229-14.827
		c-1.746-7.508-6.898-8.417-10.011-8.417h-2.405c-3.114,0-11.309,0.396-12.874,9.403c-0.061,0.358-0.112,0.047-0.155,0.435
		c-0.162,1.567-0.113,5.098,0.893,10.941C109.351,102.094,109.356,102.849,109.693,103.708z"/>
</g>
</svg>
